<svg id="图层_1" data-name="图层 1" xmlns="http://www.w3.org/2000/svg" xmlns:xlink="http://www.w3.org/1999/xlink" viewBox="0 0 1024 1024"><defs><style>.cls-1{fill:#fff;}.cls-2{fill:url(#未命名的渐变_21);}.cls-3{fill:url(#未命名的渐变_21-2);}</style><linearGradient id="未命名的渐变_21" x1="211.48" y1="211.48" x2="812.52" y2="812.52" gradientUnits="userSpaceOnUse"><stop offset="0" stop-color="#f93"/><stop offset="1" stop-color="#f82"/></linearGradient><linearGradient id="未命名的渐变_21-2" x1="445.37" y1="497.92" x2="549.91" y2="602.47" xlink:href="#未命名的渐变_21"/></defs><path class="cls-1" d="M844,0H180A180,180,0,0,0,0,180V844a180,180,0,0,0,180,180H844a180,180,0,0,0,180-180V180A180,180,0,0,0,844,0ZM512,937C277.28,937,87,746.72,87,512S277.28,87,512,87,937,277.28,937,512,746.72,937,512,937Z"/><path class="cls-1" d="M744.7,682.75c-95.45,123.47-272.93,146.17-396.39,50.71A281.52,281.52,0,0,1,246.68,577.18c-.24-1.07-.49-2.13-.75-3.19a.14.14,0,0,1,0-.07,183.85,183.85,0,0,0-23.47-54.63,14,14,0,0,1-.07-14.89,183.62,183.62,0,0,0,22.21-52.71q.94-3.85,1.73-7.74a281.4,281.4,0,0,1,49.44-104.46c.53-.71,1.07-1.41,1.61-2.12s1.14-1.46,1.72-2.18A183.77,183.77,0,0,1,625.13,472.25,593.25,593.25,0,0,0,350.91,592.48a10.43,10.43,0,0,0,1.39,17.26c78.23,44.36,179.2,25.63,235.8-47.59a182.84,182.84,0,0,0,37-89.9,603.76,603.76,0,0,1,167.76-3,10.45,10.45,0,0,1,9.09,9.24A281.64,281.64,0,0,1,744.7,682.75Z"/><path class="cls-2" d="M512,87C277.28,87,87,277.28,87,512S277.28,937,512,937,937,746.72,937,512,746.72,87,512,87ZM744.7,682.75c-95.45,123.47-272.93,146.17-396.39,50.71A281.52,281.52,0,0,1,246.68,577.18c-.24-1.07-.49-2.13-.75-3.19a.14.14,0,0,1,0-.07,183.85,183.85,0,0,0-23.47-54.63,14,14,0,0,1-.07-14.89,183.62,183.62,0,0,0,22.21-52.71q.94-3.85,1.73-7.74a281.4,281.4,0,0,1,49.44-104.46c.53-.71,1.07-1.41,1.61-2.12s1.14-1.46,1.72-2.18A183.77,183.77,0,0,1,625.13,472.25a603.76,603.76,0,0,1,167.76-3,10.45,10.45,0,0,1,9.09,9.24A281.64,281.64,0,0,1,744.7,682.75Z"/><path class="cls-3" d="M352.3,609.74c78.23,44.36,179.2,25.63,235.8-47.59a182.84,182.84,0,0,0,37-89.9A593.25,593.25,0,0,0,350.91,592.48,10.43,10.43,0,0,0,352.3,609.74Z"/></svg>