<svg width="40" height="40" xmlns="http://www.w3.org/2000/svg">
    <title>Muyv</title>
    <path id="muyv" d="m0.39857,28.42899c0.49941,1.89775 3.39597,0.19976 5.19383,1.29846c1.79787,1.0987 4.89419,5.99288 20.37581,4.09514c15.48162,-1.89775 14.58269,-17.1796 12.68494,-17.37937c-1.89775,-0.19976 -6.59217,-0.19976 -11.38648,0.89893c-4.79431,1.0987 -13.48399,8.88945 -14.88233,4.99407c-1.39834,-3.89538 10.78719,-5.19383 16.28067,-6.09277c5.49348,-0.89893 8.09039,-1.69798 8.98933,-2.19739c0.89893,-0.49941 -3.09632,-9.38885 -14.58269,-8.19028c-11.48636,1.19858 -15.38174,7.79075 -16.97984,10.98696c-1.5981,3.19621 -2.09751,8.48992 -3.09632,8.88945c-0.99881,0.39953 -3.09632,0.79905 -2.59692,2.6968l0,0z" opacity="NaN" fill="#000000" stroke="null"/>
</svg>