<svg id="图层_1" data-name="图层 1" xmlns="http://www.w3.org/2000/svg" viewBox="0 0 1000 1000"><defs><style>.cls-1{fill:#0d0d0d;}.cls-2{fill:#fff;}</style></defs><rect class="cls-1" width="1000" height="1000" rx="250"/><path class="cls-2" d="M219.52,364c1.2-9.59,4.18-16.67,10.33-21.07,23.41-16.7,38.52-41,56.26-62.63,35.39-43.11,78.81-72.27,132.71-85.79,7.19-1.81,14.3-2.3,22.4,1.45-3.58,8.35-9.49,14.11-16,18.33-13.45,8.79-20.86,20.39-20.59,35.85C390,272,373.79,292,365.91,316.77c-11.55,36.33-9.69,71.75,11.29,104.15,17.48,27,42.05,46.36,71,60.42,28.66,13.93,58.92,19.21,90.06,15.4,26.14-3.19,50.27-13.23,70.46-30.7a368.94,368.94,0,0,1,18.35-60.5c12.67-31.27,13.85-64.22,12.32-97.46a98,98,0,0,0-3.9-23.8c-3.53-11.91-11.61-20.84-17.62-31.11C601,224.26,574.73,210.66,545.06,200c-28.18-10.12-57.29-13-86.68-14.89-7.28-.49-14.62-.08-25-.08,8.3-10.2,17.32-10.82,25.87-12.13,16.47-2.51,32.95-5,49.49-7.09,28.67-3.54,56.15,2,82.09,13.83A539.29,539.29,0,0,1,654,214.26a104.84,104.84,0,0,1,25.8,22.27c8.89,10.95,18.64,21,28.19,31.29,16.37,17.61,33.36,34.54,45.13,56.06,5.37,9.83,16.26,16.28,18.62,29.1-1,15.59-11.15,27.84-18.77,41.12-18.37,32-42.59,58.51-74.11,78.19-13.82,8.63-29.31,13.3-43.78,20.36-11,5.35-21.6,10.5-29.5,19.54-23.8,2.8-46.93,7-70.16,7.65-12.1.35-23.29,2.7-34.95,4.63-15.29,2.54-30.5-2.26-45.42-6-63.77-16-118.07-49.78-169.47-89.72-19.16-14.89-34.74-33.47-54-48.14C226.53,376.73,223.69,369.9,219.52,364Z"/><path class="cls-2" d="M579.12,580.35c.53,16.78-5.51,29.09-20.26,37-5.7,3.07-11,8.23-13.06,15-2.38,7.7-8.91,11.43-14.83,16.63-1.51,15.13-3.07,30.45-4.56,45.78-.46,4.7.36,9.83-1.25,14.06-8.12,21.39-6.23,43.72-7.59,65.86-1.61,26.21-5,52.39-3.11,78.64,1.47,20.11-1,40-.65,60,.07,3.89,1.1,8.09-1.82,11.62-5-1.31-6.34-5.54-5.46-9.47,3.24-14.49-.84-29,1.25-43.89,1.65-11.69-1.23-25.2-1.69-37.93-1.29-35.52-2.48-71.05-3.95-106.57-.45-10.72-3.57-21.12-5-31.78a437.3,437.3,0,0,1-3.22-50.29c-.21-12.79-7.45-21.7-17.34-28.08-32.73-21.12-62.42-46-91-72.35-4.87-4.48-8.9-9.82-16.15-11.53-5.78-1.36-7.42-7.06-8.27-12.84,3.67-6.57,9-11.36,16.38-14.83,9.56,1.62,17.26,7.64,23.18,14.48,16.47,19.07,38.91,22.3,61.53,25.87,23.12,3.65,46.56,3.94,69.76,7.33,16.26,2.39,31.77.79,48.12-8.37,20.06-11.25,39.41-26,63.41-29.33,16.52-2.31,32.71-7,49.33-6.58,10.56-7.31,19.57-16,26.11-25.86,11.16-16.8,26.86-23,43.74-25.83,6.58,1.47,9.28,5.41,13.23,9.63-1.83,8.82-1.15,17.94,4.54,26.47-19,35.3-33.23,72.49-57.06,104.83-9.65,13.09-9.3,30.58-11.44,46.51-1.78,13.25-2.66,26.66-11.77,39.6a35.41,35.41,0,0,1-8.21-22.5c-.46-18.87-.19-37.65-7.28-55.81-2.32-6-1.05-13.34-1.39-19.49-3.35-7.15-8-11.67-15.62-11.86-10.1-.25-19.42-5.19-29.77-4.4-7.64.58-14.56-2.48-20.32-7.53s-12.11-5.15-20.3-3.59C595,568.38,589.48,576.41,579.12,580.35Z"/><path class="cls-2" d="M611.68,165.66c-13.31,8.27-25.19,3.49-36.31,1.07s-21.56-7.25-32-11.83c-9.86-4.34-19.91-8-30.09-11.42-7.89-2.67-15.21-4-23.48-1.31-32.77,10.62-66.55,5.31-100,5.73-2.72,0-5.08-1.57-8.17-6.29,5-22.75,19.89-42.61,30.7-63.77,21.84-6.79,41-.22,59.68,7.24,26.19,10.46,51.71,22.34,75.86,37.27,13.58,8.4,29.83,11.84,42.91,21.85C598.37,150,605.47,155.71,611.68,165.66Z"/><path class="cls-2" d="M375.9,554.36c-7.55,14.83-19.47,9.67-28.39,13-8.59,3.19-19.1,1.52-27.1,11.29.74,27.31-2.67,56.14,2.91,84.87A57.43,57.43,0,0,1,318,701.73c-4.3-4.73-5.74-10.42-5.73-16.69,0-30.28-6.31-60.26-4.15-90.64.65-9.09-1.36-17.34-6.7-24.79-1.94-2.7-4.18-5.5-5-8.6-5.75-20.87-14.79-40.38-24.85-60.46,6-9.41,2.75-19.79,0-29.1,7.45-2.73,9.6,1.44,12.74,3.63,14.78,10.3,28.39,22.52,46.26,27.76a28.08,28.08,0,0,1,14.85,10C355.72,526.74,365.92,540.77,375.9,554.36Z"/><path class="cls-2" d="M730.46,161.42a48.18,48.18,0,0,1-1.25,30.12c-7.41,20.89-17.08,23.15-32.46,6.69-6.25.46-6.2,8.33-11.56,10.11-4.68,1.56-9.2,1.39-14.77.31-9-6.87-18.27-14.6-23.94-25.72-9.2-18.05-23.24-31.92-37.59-43.45-2.74-6.76-.88-10.58,1.27-12.21C656,123.69,695.23,135.78,730.46,161.42Z"/><path class="cls-2" d="M387.08,173.25c-19,8-38.09,15.67-56.93,24-15.91,7-32.07,13.4-45.86,24.85-7.87,6.53-16.4,11.51-18.48,22.65-.45,2.43-3.27,4.15-6.57,3.91-4.64-2.22-5.43-7.1-7-11.41-5.29-14.55-7.15-30-11.79-44.82-3.12-9.94-2.6-21.49,6.31-31.33,9.08,4.34,19.11,3.57,29.07,3.53,13.45-.06,26.93.43,40.34-.27C339.72,163.11,362.78,167,387.08,173.25Z"/><path class="cls-2" d="M553.6,361.42c-9,12.8-22.33,8.15-32.06,7.83-13.15-.43-26.57-1.16-39.86-1.92-11.28-.65-20.86-4.07-27.1-14-1.78-9,6-17.17.62-24.55,4.25-8.22,10.32-9.58,17.44-10.13,45.19-3.49,63.1-1.74,80,8.77C555.92,338.78,555.18,350.63,553.6,361.42Z"/></svg>